<svg width="27" height="24" fill="none" xmlns="http://www.w3.org/2000/svg"><path d="M6.609 20.595v.002c.002 0 .002.002.002.003l-1.278 2.218a1.69 1.69 0 01-2.308.62 1.694 1.694 0 01-.619-2.315l1.033-1.792c.16-.233.559-.634 1.356-.559.877.095 2.561.707 1.814 1.823zm18.127-5.67H20.75c-.264-.018-.384-.11-.433-.168a.062.062 0 01-.006-.01l-4.265-7.41h-.005l-.002.001-.002-.001-.254-.366c-.325-.498-.798.377-.995.797-.032.07.05-.104-.013.038-.015.035-.145.349-.158.384-.057.144.034-.11-.002-.008-.644 1.78.208 3.733.511 4.339l5.927 10.295a1.695 1.695 0 001.026.79 1.685 1.685 0 002.07-1.199 1.7 1.7 0 00-.17-1.286l-1.481-2.574c-.029-.063-.08-.232.225-.233h2.013c.44-.01.86-.194 1.168-.51a1.697 1.697 0 00-1.168-2.879zm-7.839 1.864c.215.703-.322-1.054-.201-.379.012.074.174 1.744.176 1.82.011.686.225-1.38.14-.553-.031.299-.168.637-.628.637H1.65a1.687 1.687 0 01-1.17-.51 1.697 1.697 0 011.17-2.879h3.788c.587-.034.745-.362.756-.388h.002l.003-.001 4.944-8.588-.001-.001v-.001a.379.379 0 000-.347L9.51 2.762A1.7 1.7 0 0110.143.47a1.685 1.685 0 012.293.597.876.876 0 001.194.322.875.875 0 00.32-.32 1.695 1.695 0 011.684-.833 1.686 1.686 0 011.411 1.241 1.698 1.698 0 01-.169 1.286l-6.88 11.954c-.03.073-.04.188.184.207h3.818c.164 0-.246 0 .023.013.05.003.668.051.716.057.268.03-.432-.082-.152-.038.588.095 1.89.456 2.311 1.833h.001z" fill="url(#paint0_linear)"/><defs><linearGradient id="paint0_linear" x1="13.193" y1="23.666" x2="13.193" y2=".219" gradientUnits="userSpaceOnUse"><stop stop-color="#1D76F2"/><stop offset="1" stop-color="#1AC2FB"/></linearGradient></defs></svg>